<svg width="37" height="33" viewBox="0 0 37 33" fill="none" xmlns="http://www.w3.org/2000/svg">
<path d="M32.9256 0.396484H9.73563C7.76805 0.396484 6.16794 1.99659 6.16794 3.96417V7.53187H4.3841C2.41652 7.53187 0.816406 9.13197 0.816406 11.0996V28.938C0.816406 30.9056 2.41652 32.5057 4.3841 32.5057H15.0872C17.0548 32.5057 18.6549 30.9056 18.6549 28.938H32.9256C34.8932 28.938 36.4933 27.3379 36.4933 25.3703V3.96417C36.4933 1.99659 34.8932 0.396484 32.9256 0.396484ZM7.95179 11.0996H15.0872L15.0818 27.1542H4.3841V11.0996H7.95179ZM18.6549 25.3703V11.0996C18.6549 9.13197 17.0548 7.53187 15.0872 7.53187H9.73563V3.96417H29.3579V25.3703H18.6549Z" fill="#39FF14"/>
</svg>
