<svg width="44" height="43" viewBox="0 0 44 43" fill="none" xmlns="http://www.w3.org/2000/svg">
<path d="M36.3719 5.39648H7.83039C5.8628 5.39648 4.2627 6.99659 4.2627 8.96417V33.938C4.2627 35.9056 5.8628 37.5057 7.83039 37.5057H36.3719C38.3395 37.5057 39.9396 35.9056 39.9396 33.938V8.96417C39.9396 6.99659 38.3395 5.39648 36.3719 5.39648ZM7.83039 33.938V12.5319H36.3719L36.3755 33.938H7.83039Z" fill="#39FF14"/>
<path d="M17.5649 16.6221L10.9521 23.2348L17.5649 29.8475L20.0872 27.3251L15.9969 23.2348L20.0872 19.1444L17.5649 16.6221ZM27.2226 16.6221L24.7002 19.1444L28.7906 23.2348L24.7002 27.3251L27.2226 29.8475L33.8353 23.2348L27.2226 16.6221Z" fill="#39FF14"/>
</svg>
