<svg width="44" height="43" viewBox="0 0 44 43" fill="none" xmlns="http://www.w3.org/2000/svg">
<path d="M38.5468 12.2186C40.0945 15.0494 40.9036 18.2248 40.8993 21.4511C40.9001 24.8188 40.0168 28.1277 38.3376 31.0469C36.6584 33.9661 34.2423 36.3933 31.3307 38.0858L37.2089 21.0914C38.307 18.3472 38.6731 16.1488 38.6731 14.2008C38.6738 13.538 38.6316 12.8759 38.5468 12.2186V12.2186ZM24.3095 12.4048C25.0437 12.3687 25.7762 12.3059 26.5058 12.2165C27.544 12.0816 27.422 10.5575 26.3859 10.6131C26.3859 10.6131 23.2542 10.8529 21.2485 10.8529C19.3497 10.8529 16.1645 10.5853 16.1645 10.5853C15.122 10.5339 14.9872 12.1116 16.0339 12.1651C16.0339 12.1651 16.995 12.2764 18.0418 12.3256L21.0365 20.5413L16.8088 33.1688L9.80044 12.3535C10.5356 12.3165 11.2694 12.2572 12.001 12.1758C13.0435 12.0409 12.9215 10.5168 11.8833 10.5767C11.8833 10.5767 8.76867 10.8229 6.75649 10.8229C6.39901 10.8229 5.97517 10.8079 5.52564 10.7951C9.01056 5.66403 14.9379 2.21122 21.6552 2.21122C26.6663 2.21122 31.2259 4.12493 34.6508 7.26307C34.5695 7.25879 34.4881 7.24595 34.4004 7.24595C32.5102 7.24595 31.1681 8.89422 31.1681 10.6624C31.1681 12.2486 32.0821 13.5929 33.0582 15.1748C33.7924 16.4613 34.6466 18.1074 34.6466 20.4856C34.6466 22.1189 34.0151 24.0433 33.1802 26.6913L31.2622 33.0853L24.3052 12.3749L24.3095 12.4048V12.4048ZM21.6552 40.6866C19.8148 40.6884 17.9838 40.426 16.218 39.9074L21.9912 23.1293L27.9058 39.338C27.9507 39.4322 27.9957 39.52 28.0449 39.6035C25.9915 40.3236 23.8311 40.6912 21.6552 40.6909V40.6866ZM2.41104 21.4511C2.40792 18.7527 2.97547 16.0842 4.07644 13.6207L13.2533 38.7708C10.0026 37.1924 7.2619 34.7311 5.34453 31.6682C3.42715 28.6053 2.41056 25.0646 2.41104 21.4511V21.4511ZM21.6552 0.0449219C9.85396 0.0449219 0.249023 9.64986 0.249023 21.4511C0.249023 33.2523 9.85396 42.8572 21.6552 42.8572C33.4564 42.8572 43.0613 33.2523 43.0613 21.4511C43.0613 9.64986 33.4564 0.0449219 21.6552 0.0449219" fill="#39FF14"/>
</svg>
